<?xml version="1.0" encoding="utf-8" ?><svg xmlns="http://www.w3.org/2000/svg" xmlns:xlink="http://www.w3.org/1999/xlink" width="3883" height="1248" viewBox="0 0 3883 1248"><path fill="white" transform="matrix(2.16685 0 0 2.16667 -0.00012207 0)" d="M0 0L1792 0L1792 576L0 576L0 0Z"/><path fill="#F3AB28" transform="matrix(2.16685 0 0 2.16667 -0.00012207 0)" d="M223.033 235.337C230.137 235.098 308.951 282.311 319.555 289.461C290.522 307.438 256.304 326.061 226.382 343.237C226.136 343.359 225.89 343.48 225.644 343.601C219.237 342.545 200.615 329.743 195.88 327.063C183.215 319.895 173.591 314.24 161.764 307.457C150.962 301.262 140.79 295.448 130.877 288.751C138.135 283.345 153.428 274.772 161.524 270.035C181.639 258.267 202.446 246.145 223.033 235.337Z"/><path fill="#F3AB28" transform="matrix(2.16685 0 0 2.16667 -0.00012207 0)" d="M234.435 113.044C236.668 110.762 237.282 110.172 240.681 112.079C254.465 119.814 326.582 155.758 328.957 166.362C329.495 169.39 329.612 172.379 329.718 175.446C330.804 207.023 330.166 238.725 329.917 270.318C316.526 263.697 299.26 253.288 285.835 245.858C270.839 237.558 251.046 227.421 236.846 218.465C233.721 204.21 232.211 129.097 234.435 113.044Z"/><path fill="#E39A25" transform="matrix(2.16685 0 0 2.16667 -0.00012207 0)" d="M234.435 113.044C236.668 110.762 237.282 110.172 240.681 112.079C254.465 119.814 326.582 155.758 328.957 166.362C328.57 166.324 328.183 166.286 327.797 166.248C300.683 147.849 271.756 130.134 241.823 116.57C237.747 114.723 236.089 115.522 234.435 113.044Z"/><path fill="#F3AB28" transform="matrix(2.16685 0 0 2.16667 -0.00012207 0)" d="M451.844 235.35C460.656 236.765 537.694 282.287 546.666 289.271C527.047 302.625 502.852 314.936 482.427 327.595C473.56 333.09 462.779 338.413 454.707 344.833C454.945 344.878 365.833 292.699 360.048 288.853C389.303 270.874 422.003 252.902 451.844 235.35Z"/><path fill="#F3AB28" transform="matrix(2.16685 0 0 2.16667 -0.00012207 0)" d="M326.503 309.738L328.858 310.93C330.119 312.534 329.87 403.602 329.853 415.429C323.876 419.982 302.036 431.776 294.485 435.837C276.514 445.501 256.606 457.494 238.321 465.866C237.628 466.133 236.137 466.371 235.352 466.525C233.07 463.79 234.078 371.29 235.707 360.792C242.339 355.864 257.323 347.897 265.27 343.279C285.356 331.608 305.471 319.558 326.503 309.738Z"/><path fill="#F3AB28" transform="matrix(2.16685 0 0 2.16667 -0.00012207 0)" d="M421.743 122.164C426.473 119.004 433.412 114.978 438.652 112.823C441.252 111.754 441.605 112.295 443.669 113.348C443.157 125.762 443.738 141.241 443.796 153.994L443.812 219.503C413.033 234.818 382.097 255.098 352.604 269.499C350.428 247.899 349.04 182.968 352.967 161.6C356.952 158.411 418.575 122.889 421.743 122.164Z"/><path fill="#E39A25" transform="matrix(2.16685 0 0 2.16667 -0.00012207 0)" d="M421.743 122.164C426.473 119.004 433.412 114.978 438.652 112.823C441.252 111.754 441.605 112.295 443.669 113.348C440.534 116.79 428.977 121.357 424.349 123.016C423.462 122.801 422.489 122.653 421.743 122.164Z"/><path fill="#F3AB28" transform="matrix(2.16685 0 0 2.16667 -0.00012207 0)" d="M351.457 313.505L351.816 310.3C355.641 308.381 367.185 317.621 370.935 320.204C394.999 333.668 420.121 346.6 444.43 359.858C444.408 394.442 445.059 433.273 442.687 467.608C424.922 459.492 409.197 449.878 392.489 439.866C378.789 431.656 364.093 423.71 350.783 415.01C350.492 389.874 350.591 364.737 351.266 339.609C351.5 330.905 351.854 322.208 351.457 313.505Z"/><path fill="#E39A25" transform="matrix(2.16685 0 0 2.16667 -0.00012207 0)" d="M351.457 313.505L351.816 310.3C355.641 308.381 367.185 317.621 370.935 320.204C369.933 321.535 370.421 321.096 368.415 321.671C361.81 320.1 357.006 317.322 351.457 313.505Z"/><path transform="matrix(2.16685 0 0 2.16667 -0.00012207 0)" d="M579.466 309.767C599.295 309.78 645.983 305.055 645.842 334.447C645.807 341.761 640.777 349.139 636.603 354.746C649.239 367.024 652.245 375.628 643.452 391.645C630.744 407.165 597.512 405.178 579.328 402.582C578.092 369.679 578.282 342.748 579.466 309.767Z"/><path fill="white" transform="matrix(2.16685 0 0 2.16667 -0.00012207 0)" d="M596.38 362.442C609.557 362.158 641.731 361.21 626.576 383.335C617.759 387.725 604.372 386.034 594.546 385.411C594.559 377.505 594.903 370.22 596.38 362.442Z"/><path fill="white" transform="matrix(2.16685 0 0 2.16667 -0.00012207 0)" d="M599.904 327.597C608.484 326.918 621.893 326.252 626.809 334.996C627.341 340.967 622.959 343.554 618.166 346.018C602.716 349.704 581.913 341.811 599.904 327.597Z"/><path transform="matrix(2.16685 0 0 2.16667 -0.00012207 0)" d="M1154.86 309.126L1155.52 309.442C1158.07 312.05 1157.49 333.522 1157.51 338.672C1163.56 336.639 1172.21 333.031 1178.61 333.94C1197.88 336.677 1202.23 361.942 1199.94 377.737C1198.27 389.251 1193.87 395.974 1184.6 402.775C1174.86 408.193 1172.4 407.404 1164.29 400.561C1158.08 401.804 1147.13 405.022 1141.83 401.303C1137.73 391.935 1139.46 328.401 1139.83 314.433C1145.72 311.744 1148.62 310.636 1154.86 309.126Z"/><path fill="white" transform="matrix(2.16685 0 0 2.16667 -0.00012207 0)" d="M1166.64 351.043C1185.75 350.111 1187.06 376.726 1171.29 387.772L1170.3 387.552C1150.92 383.134 1150.37 361.021 1166.64 351.043Z"/><path transform="matrix(2.16685 0 0 2.16667 -0.00012207 0)" d="M1081.37 309.207C1084.53 308.862 1089.36 308.286 1092.3 309.734C1102.15 314.574 1124.57 389.236 1129.25 403.864C1111.64 402.666 1112.26 401.619 1105.22 386.544C1104.07 384.087 1097.46 383.584 1094.82 383.409C1073.84 383.267 1069.18 379.626 1065.2 402.174L1045.35 403.685C1047.7 390.629 1074.6 319.862 1081.37 309.207Z"/><path fill="white" transform="matrix(2.16685 0 0 2.16667 -0.00012207 0)" d="M1088.87 340.197C1092.04 342.944 1097.6 361.262 1099.37 366.496L1088.22 366.741L1076.82 366.562C1080.01 354.762 1081.5 349.789 1088.87 340.197Z"/><path transform="matrix(2.16685 0 0 2.16667 -0.00012207 0)" d="M697.011 177.904C728.843 174.738 725.332 200.536 724.034 223.454C723.355 235.44 723.088 248.306 724.764 260.216C729.001 255.587 747.969 245.785 753.597 249.226C756.457 253.255 755.911 267.287 755.985 272.649C734.358 275.801 743.517 272.936 727.722 264.593C720.555 265.326 712.011 265.653 704.723 266.115C704.486 253.155 704.323 241.228 704.728 228.257C705.274 220.769 707.804 191.807 701.678 187.364C690.778 179.459 688.476 197.522 687.903 204.545C686.213 225.243 687.011 245.576 689.214 266.194C682.088 266.321 676.126 266.32 669.088 264.976C665.602 232.508 657.953 190.309 697.011 177.904Z"/><path transform="matrix(2.16685 0 0 2.16667 -0.00012207 0)" d="M1225.41 169.803C1238 169.104 1234.46 191.921 1233.64 199.582C1301.81 181.421 1280.48 217.746 1280.18 264.256C1272.53 265.364 1266.08 265.362 1258.37 265.499C1258.13 248.684 1265.95 212.791 1258.72 202.277C1250.37 201.156 1240.84 208.645 1239.53 216.944C1240.49 219.793 1243.39 221.079 1243.36 221.405C1242.06 234.141 1236.47 253.046 1236.18 265.907C1230.69 266.154 1222.83 266.934 1218.73 262.746C1211.39 255.234 1220.77 234.423 1223.51 225.666L1215.02 222.45C1226.98 208.809 1220.08 211.899 1214.36 206.256C1214.05 205.953 1213.86 191.524 1213.55 188.674C1212.98 183.406 1211.75 180.471 1209.6 175.331C1214.46 173.43 1220.41 171.54 1225.41 169.803Z"/><path transform="matrix(2.16685 0 0 2.16667 -0.00012207 0)" d="M926.233 332.867C942.459 332.781 955.39 337.213 960.034 354.05C966.685 378.159 960.687 397.391 936.136 404.907C893.153 410.395 884.165 343.265 926.233 332.867Z"/><path fill="white" transform="matrix(2.16685 0 0 2.16667 -0.00012207 0)" d="M926.786 350.96C948.02 349.58 949.815 374.553 933.924 386.563C913.868 386.973 912.542 362.15 926.786 350.96Z"/><path transform="matrix(2.16685 0 0 2.16667 -0.00012207 0)" d="M1564.98 332.819C1604.52 329.497 1598.78 353.052 1599.52 383.203C1599.92 399.421 1600.57 402.481 1586.44 401.664C1567.88 400.591 1565.61 411.732 1547.3 398.097C1543.54 393.093 1541.51 389.179 1541.16 382.974C1539.52 353.412 1574.72 362.937 1581.55 355.059L1580.96 352.949C1569.59 341.064 1550.07 356.609 1546.22 345.185C1548.02 335.257 1556.62 334.433 1564.98 332.819Z"/><path fill="white" transform="matrix(2.16685 0 0 2.16667 -0.00012207 0)" d="M1563.38 374.003C1569.11 373.126 1581.55 372.961 1581.32 381.049C1579.78 383.969 1578.18 384.57 1575.33 386.136C1565.59 389.069 1550.38 384.032 1563.38 374.003Z"/><path transform="matrix(2.16685 0 0 2.16667 -0.00012207 0)" d="M605.47 174.558C607.829 174.181 609.064 173.751 611.107 174.897C614.8 180.492 613.507 191.616 613.357 198.647C620.281 197.695 626.324 197.22 633.289 196.724C627.305 204.6 622.895 209.982 618.104 218.671C622.27 217.405 634.117 213.417 637.174 216.525C647.146 226.661 649.689 251.486 652.429 264.846C624.684 269.365 629.26 255.761 625.057 234.288C623.873 228.447 617.214 225.133 613.326 229.23C605.844 237.115 605.457 255.096 604.968 265.037C599.948 265.627 587.681 267.576 584.522 264.519C572.483 252.868 598.477 218.618 604.595 209.89L593.302 207.004C593.801 193.698 593.639 188.624 589.361 176.352L605.47 174.558Z"/><path transform="matrix(2.16685 0 0 2.16667 -0.00012207 0)" d="M679.249 333.753C696.99 331.815 712.782 334.562 713.727 356.081C714.235 367.634 717.413 391.074 713.314 401.29C710.22 403.643 705.321 401.744 701.676 401.844C684.949 402.304 678.461 409.858 663.713 397.904C662.336 396.24 661.453 394.881 660.589 392.936C646.828 361.944 676.537 360.363 696.738 358.639C697.222 357.224 697.296 357.208 696.621 355.546C690.089 339.468 673.692 355.354 664.98 351.01C664.734 350.528 664.337 349.677 664.284 349.126C663.042 336.309 669.004 335.638 679.249 333.753Z"/><path fill="white" transform="matrix(2.16685 0 0 2.16667 -0.00012207 0)" d="M682.321 373.897C687.879 373.773 698.526 374.313 697.647 382.137C695.995 384.864 693.585 385.567 690.676 386.841C684.577 388.084 680.885 388.456 676.22 383.608C674.384 377.81 677.441 376.27 682.321 373.897Z"/><path transform="matrix(2.16685 0 0 2.16667 -0.00012207 0)" d="M803.073 173.705C813.766 172.399 810.498 183.296 809.612 190.165C826.296 200.459 828.582 207.468 827.528 227.303C826.918 238.779 826.336 254.204 829.291 265.353L825.548 265.954C804.838 269.178 808.389 262.306 807.04 245.514C805.915 231.511 816.733 197.309 794.422 200.376C785.223 214.326 788.722 249.333 791.27 265.392L770.383 267.109C769.276 250.711 765.652 219.669 775.731 205.964C778.726 201.891 787.237 197.368 790.043 193.11C794.065 187.007 790.403 183.632 789.258 177.719L790.556 175.904C794.182 173.876 798.877 173.95 803.073 173.705Z"/><path transform="matrix(2.16685 0 0 2.16667 -0.00012207 0)" d="M982.401 176.24C999.819 176.881 1005.53 188.225 1000.1 203.949C995.905 216.105 973.641 214.436 970.165 222.075C970.669 229.045 976.604 242.715 979.327 249.515C970.845 253.009 965.386 254.653 956.468 255.899C954.281 264.32 953.14 268.037 946.522 273.588C928.451 277.926 925.787 260.182 936.333 250.586C939.23 247.95 953.113 251.951 957.389 252.854C956.243 232.315 938.93 208.555 953.892 189.003C960.404 180.494 972.197 177.419 982.401 176.24Z"/><path fill="white" transform="matrix(2.16685 0 0 2.16667 -0.00012207 0)" d="M978.698 181.754C989.595 189.676 977.964 203.438 971.174 209.485C960.686 206.979 975.833 185.369 978.698 181.754Z"/><path transform="matrix(2.16685 0 0 2.16667 -0.00012207 0)" d="M814.975 309.067C815.671 309.197 816.675 309.723 817.364 310.041C819.308 314.505 817.62 343.952 817.382 350.441C824.021 345.29 842.702 329.602 850.761 334.232L851.22 336.444C849.071 343.661 842.965 348.773 837.672 354.19C844.103 371.156 853.753 386.509 860.751 403.339C855.651 403.235 850.315 403.306 845.191 403.295C835.909 397.722 830.204 373.413 821.426 370.592L818.866 372.07C813.13 380.071 821.286 393.94 814.436 401.332C810.935 403.435 804.421 403.579 801.819 399.978C800.378 390.701 799.951 323.351 801.937 315.063C805.701 310.607 809.345 310.351 814.975 309.067Z"/><path transform="matrix(2.16685 0 0 2.16667 -0.00012207 0)" d="M1086.89 177.843C1113.64 175.53 1116.75 194.687 1115.58 217.261C1114.68 234.555 1114.7 249.085 1116.92 266.214C1108.84 266.742 1103.65 266.657 1095.61 266.153C1094.44 241.478 1097.41 217.943 1095.38 194.022C1094.24 189.24 1093.05 184.342 1087.31 184.484C1076.76 189.631 1075.29 213.221 1076.15 223.19C1076.81 230.892 1077.77 234.099 1081.05 241.024C1075.74 242.084 1066.13 246.826 1062.37 245.956C1056.07 241.119 1056.2 227.15 1056.28 219.858C1056.5 196.747 1063.83 183.029 1086.89 177.843Z"/><path transform="matrix(2.16685 0 0 2.16667 -0.00012207 0)" d="M1209.04 332.483C1226.07 332.95 1229.62 362.312 1235.55 376.288C1241.04 366.365 1250.96 336.23 1260.66 333.15C1264.13 333.318 1267.11 333.51 1269.43 336.039C1270.43 343.807 1258.47 371.51 1255.03 380.132C1252.47 386.189 1233.33 447.608 1220.78 425.884C1219.59 420.261 1225.1 407.715 1227.22 401.991C1221.02 381.349 1211.33 360.92 1206.39 339.944C1205.5 336.117 1206.69 335.155 1209.04 332.483Z"/><path transform="matrix(2.16685 0 0 2.16667 -0.00012207 0)" d="M746.575 337.233C795.4 320.835 787.302 370.648 786.534 402.438C769.017 403.396 767.347 400.406 768.918 382.704C769.348 377.859 769.226 371.223 769.256 366.21C769.232 362.375 768.381 355.56 765.589 353.17C747.632 337.803 744.706 367.633 744.66 378.378C744.622 387.247 744.657 394.335 744.751 402.226C740.54 402.557 735.341 403.288 731.394 402.081C723.152 396.925 727.957 343.59 731.359 333.284C737.159 334.041 741.083 335.449 746.575 337.233Z"/><path transform="matrix(2.16685 0 0 2.16667 -0.00012207 0)" d="M1155.69 178.053C1186.48 175.64 1188.41 178.576 1179.96 206.76C1186.94 208.29 1191.21 208.835 1198.29 209.56C1190.87 228.344 1181.67 246.032 1174.57 264.966C1155.26 269.131 1150.21 265.551 1157.61 246.808C1163.04 234.983 1168.15 223.652 1172.68 211.436L1171.58 211.476C1166.71 211.643 1162.62 212.41 1159.03 209.053C1156.44 203.918 1160.97 195.423 1162.95 189.039C1160.91 186.246 1159 184.234 1156.67 181.708C1154.33 187.558 1151.95 192.878 1148.19 197.989C1145.07 202.231 1135.15 207.679 1130.63 203.846C1129.97 201.107 1130.59 186.415 1130.52 181.949C1139.02 180.074 1147.04 178.862 1155.69 178.053Z"/><path transform="matrix(2.16685 0 0 2.16667 -0.00012207 0)" d="M1467.89 332.694C1504.46 330.233 1496.09 377.982 1495.71 402.726L1478.66 402.823C1477.87 393.706 1478.48 384.797 1478.53 375.676C1478.6 362.329 1479.7 353.397 1465.16 348.902C1452.99 353.301 1453.1 364.178 1453.1 375.363C1453.09 384.427 1453.3 393.52 1453.43 402.585L1437.54 402.708C1437.43 390.829 1435.34 343.024 1441.1 334.61C1445.1 332.261 1454.25 335.106 1458.98 336.18C1461.49 334.986 1465.21 333.707 1467.89 332.694Z"/><path transform="matrix(2.16685 0 0 2.16667 -0.00012207 0)" d="M879.894 178.924C904.079 174.864 926.571 178.677 906.219 207.115C912.31 208.416 921.315 209.482 927.674 210.42C922.265 224.776 909.537 250.261 902.795 265.618C894.082 267.404 884.521 269.879 883.205 258.556C887.01 245.344 896.59 226.482 902.033 212.598C896.626 212.036 892.42 212.337 888.769 208.408C886.414 201.07 892.211 199.453 894.034 191.169C893.398 188.006 893.935 189.101 891.665 186.755C883.597 186.555 870.625 211.852 861.399 206.115C859.226 202.036 861.799 186.466 862.449 180.807L879.894 178.924Z"/><path transform="matrix(2.16685 0 0 2.16667 -0.00012207 0)" d="M1359.22 332.914C1366.14 332.606 1380.16 333.463 1385.34 338.852C1390.88 344.61 1382.62 350.747 1378.76 354.024C1374.52 352.039 1362.61 347.274 1358.34 350.846C1360.23 362.166 1391.37 364.897 1391.42 380.026C1391.47 396.857 1381.61 403.161 1366.2 404.843C1358.91 404.362 1338.66 401.799 1339.39 391.668C1340.49 376.337 1374.02 395.689 1375.01 384.481C1369.27 374.025 1327.81 369.247 1342.87 342.909C1346.28 336.96 1352.82 334.433 1359.22 332.914Z"/><path transform="matrix(2.16685 0 0 2.16667 -0.00012207 0)" d="M1294.2 333.689C1304.61 332.093 1322.06 333.841 1326.55 345.226C1324.87 356.363 1302.83 346.501 1297.25 352.76C1298.43 360.532 1316.41 363.104 1321.56 368.375C1326.61 373.545 1327.51 377.165 1329.85 383.75C1325.45 398.411 1320.91 402.196 1305.93 404.842C1297.85 404.752 1269.01 401.329 1279.7 387.157C1288.82 380.644 1306.22 393.615 1312.44 385.593C1311.98 382.385 1310.2 380.477 1307.35 379.03C1293.8 372.149 1271.68 366.717 1279.73 346.291C1282.82 338.463 1286.91 336.797 1294.2 333.689Z"/><path transform="matrix(2.16685 0 0 2.16667 -0.00012207 0)" d="M978.271 351.675C974 349.783 967.888 347.063 966.604 342.184C967.033 337.116 975.743 334.758 977.035 332.475C980.314 325.537 976.84 319.705 982.934 313.403C989.899 306.201 1000.27 307.181 1007.42 313.466C1011.13 316.73 1010.87 319.667 1011.08 324.35C1011.84 328.251 1011.47 331.535 1010.74 335.439C1009.36 349.29 1008.81 349.406 995.33 349.696C994.806 367.219 994.896 385.166 994.813 402.73C990.471 402.846 984.28 403.513 980.736 401.143C977.845 395.749 978.369 360.318 978.271 351.675Z"/><path fill="#E9E8E8" transform="matrix(2.16685 0 0 2.16667 -0.00012207 0)" d="M1010.74 335.439C1004.58 335.62 999.046 336.812 995.517 330.962C997.426 323.743 1004.93 324.586 1011.08 324.35C1011.84 328.251 1011.47 331.535 1010.74 335.439Z"/><path transform="matrix(2.16685 0 0 2.16667 -0.00012207 0)" d="M1510.97 321.536C1510.23 303.367 1526.58 301.49 1530.46 317.636C1530.5 323.41 1531.22 339.071 1529.67 343.665C1529.22 363.027 1529.52 383.198 1529.55 402.62C1524.39 402.748 1518.91 403.365 1514.55 400.494C1508.68 393.248 1511.13 378.312 1511.18 369.385C1511.24 358.136 1511.36 347.015 1511.11 335.75C1510.57 331.53 1510.86 325.905 1510.97 321.536Z"/><path transform="matrix(2.16685 0 0 2.16667 -0.00012207 0)" d="M1510.97 321.536C1510.23 303.367 1526.58 301.49 1530.46 317.636C1527.11 328.214 1518.34 328.832 1510.97 321.536Z"/><path fill="#E9E8E8" transform="matrix(2.16685 0 0 2.16667 -0.00012207 0)" d="M1510.97 321.536C1518.34 328.832 1527.11 328.214 1530.46 317.636C1530.5 323.41 1531.22 339.071 1529.67 343.665C1530.1 329.513 1521.93 333.689 1511.11 335.75C1510.57 331.53 1510.86 325.905 1510.97 321.536Z"/><path transform="matrix(2.16685 0 0 2.16667 -0.00012207 0)" d="M1404.22 322.427C1403.13 302.156 1422.91 301.976 1422.82 320.557C1422.94 324.775 1423.41 331.053 1422.33 334.925C1420.53 349.245 1421.86 385.898 1421.58 402.245C1416.16 402.495 1410.93 402.761 1405.49 402.707C1405.57 389.231 1406.36 355.062 1404.51 343.52C1403.37 336.181 1403.27 329.772 1404.22 322.427Z"/><path transform="matrix(2.16685 0 0 2.16667 -0.00012207 0)" d="M1404.22 322.427C1403.13 302.156 1422.91 301.976 1422.82 320.557C1417.3 326.815 1410.84 329.165 1404.22 322.427Z"/><path fill="#E9E8E8" transform="matrix(2.16685 0 0 2.16667 -0.00012207 0)" d="M1404.22 322.427C1410.84 329.165 1417.3 326.815 1422.82 320.557C1422.94 324.775 1423.41 331.053 1422.33 334.925C1412.48 333.436 1406.23 331.383 1404.51 343.52C1403.37 336.181 1403.27 329.772 1404.22 322.427Z"/><path transform="matrix(2.16685 0 0 2.16667 -0.00012207 0)" d="M853.624 248.69C855.121 248.5 855.342 248.715 856.786 249.327C860.154 254.077 859.559 266.798 859.676 272.921C853.709 274.114 845.267 275.54 839.781 272.651C838.541 271.033 835.894 267.957 834.181 266.951C819.025 258.042 845.522 250.701 853.624 248.69Z"/></svg>